# xmcd
#
# Track frame offsets:
#	150
#	12500
#	27067
#	33477
#	44620
#	60648
#	75380
#	86076
#	95925
#	103886
#	115149
#	125219
#	136133
#	148457
#	160729
#	172604
#	186191
#	203824
#
# Disc length: 2837 seconds
#
# Revision: 1
# Processed by: cddbd v1.5.2PL0 Copyright (c) Steve Scherf et al.
# Submitted via: audiograbber 1.83.01
#
DISCID=fd0b1312
DTITLE=Monks - Black Monk Time
DYEAR=1966
DGENRE=Rock
TTITLE0=Monk Time
TTITLE1=Shut Up
TTITLE2=Boys Are Boys and Girls Are Choice
TTITLE3=Higgle-Dy - Piggle-Dy
TTITLE4=I Hate You
TTITLE5=Oh, How To Do Now
TTITLE6=Complication
TTITLE7=We Do Wie Du
TTITLE8=Drunken Maria
TTITLE9=Love Came Tumblin' Down
TTITLE10=Blast Off
TTITLE11=That's My Girl
TTITLE12=I Can't Get Over You
TTITLE13=Cuckoo
TTITLE14=Love Can Tame the Wild
TTITLE15=He Went Down To the Sea
TTITLE16=Pretty Suzanne
TTITLE17=Monk Chant (live)
EXTD=
EXTT0=
EXTT1=
EXTT2=
EXTT3=
EXTT4=
EXTT5=
EXTT6=
EXTT7=
EXTT8=
EXTT9=
EXTT10=
EXTT11=
EXTT12=
EXTT13=
EXTT14=
EXTT15=
EXTT16=
EXTT17=
PLAYORDER=
